<svg xmlns="http://www.w3.org/2000/svg" width="980" height="620" viewBox="0 0 980 620">
<rect width="100%" height="100%" fill="#fcfbf7"/>
<text x="90" y="38" font-size="28" font-family="Helvetica, Arial, sans-serif" fill="#1c1c1c">Total Parallel Nodes by Thread Count</text>
<text x="90" y="64" font-size="15" font-family="Helvetica, Arial, sans-serif" fill="#5a5a5a">Summed searched node counts across all parallel rows</text>
<line x1="90" y1="530.00" x2="950" y2="530.00" stroke="#ded8c9" stroke-width="1"/>
<text x="78" y="535.00" text-anchor="end" font-size="13" font-family="Helvetica, Arial, sans-serif" fill="#5a5a5a">0.00</text>
<line x1="90" y1="456.67" x2="950" y2="456.67" stroke="#ded8c9" stroke-width="1"/>
<text x="78" y="461.67" text-anchor="end" font-size="13" font-family="Helvetica, Arial, sans-serif" fill="#5a5a5a">201779079.00</text>
<line x1="90" y1="383.33" x2="950" y2="383.33" stroke="#ded8c9" stroke-width="1"/>
<text x="78" y="388.33" text-anchor="end" font-size="13" font-family="Helvetica, Arial, sans-serif" fill="#5a5a5a">403558158.00</text>
<line x1="90" y1="310.00" x2="950" y2="310.00" stroke="#ded8c9" stroke-width="1"/>
<text x="78" y="315.00" text-anchor="end" font-size="13" font-family="Helvetica, Arial, sans-serif" fill="#5a5a5a">605337237.00</text>
<line x1="90" y1="236.67" x2="950" y2="236.67" stroke="#ded8c9" stroke-width="1"/>
<text x="78" y="241.67" text-anchor="end" font-size="13" font-family="Helvetica, Arial, sans-serif" fill="#5a5a5a">807116316.00</text>
<line x1="90" y1="163.33" x2="950" y2="163.33" stroke="#ded8c9" stroke-width="1"/>
<text x="78" y="168.33" text-anchor="end" font-size="13" font-family="Helvetica, Arial, sans-serif" fill="#5a5a5a">1008895395.00</text>
<line x1="90" y1="90.00" x2="950" y2="90.00" stroke="#ded8c9" stroke-width="1"/>
<text x="78" y="95.00" text-anchor="end" font-size="13" font-family="Helvetica, Arial, sans-serif" fill="#5a5a5a">1210674474.00</text>
<line x1="90" y1="90" x2="90" y2="530" stroke="#746b58" stroke-width="1.5"/>
<line x1="90" y1="530" x2="950" y2="530" stroke="#746b58" stroke-width="1.5"/>
<text x="520.00" y="598" text-anchor="middle" font-size="16" font-family="Helvetica, Arial, sans-serif" fill="#1c1c1c">Thread Count / Category</text>
<text x="26" y="310.00" text-anchor="middle" transform="rotate(-90 26 310.00)" font-size="16" font-family="Helvetica, Arial, sans-serif" fill="#1c1c1c">Total Nodes Searched</text>
<rect x="128.70" y="304.08" width="94.60" height="225.92" fill="#c46b29" rx="4"/>
<text x="176.00" y="558" text-anchor="middle" font-size="13" font-family="Helvetica, Arial, sans-serif" fill="#5a5a5a">1</text>
<text x="176.00" y="296.08" text-anchor="middle" font-size="12" font-family="Helvetica, Arial, sans-serif" fill="#1c1c1c">621623443.00</text>
<rect x="300.70" y="290.80" width="94.60" height="239.20" fill="#c46b29" rx="4"/>
<text x="348.00" y="558" text-anchor="middle" font-size="13" font-family="Helvetica, Arial, sans-serif" fill="#5a5a5a">2</text>
<text x="348.00" y="282.80" text-anchor="middle" font-size="12" font-family="Helvetica, Arial, sans-serif" fill="#1c1c1c">658159839.00</text>
<rect x="472.70" y="253.65" width="94.60" height="276.35" fill="#c46b29" rx="4"/>
<text x="520.00" y="558" text-anchor="middle" font-size="13" font-family="Helvetica, Arial, sans-serif" fill="#5a5a5a">4</text>
<text x="520.00" y="245.65" text-anchor="middle" font-size="12" font-family="Helvetica, Arial, sans-serif" fill="#1c1c1c">760385455.00</text>
<rect x="644.70" y="189.32" width="94.60" height="340.68" fill="#c46b29" rx="4"/>
<text x="692.00" y="558" text-anchor="middle" font-size="13" font-family="Helvetica, Arial, sans-serif" fill="#5a5a5a">8</text>
<text x="692.00" y="181.32" text-anchor="middle" font-size="12" font-family="Helvetica, Arial, sans-serif" fill="#1c1c1c">937386269.00</text>
<rect x="816.70" y="90.00" width="94.60" height="440.00" fill="#c46b29" rx="4"/>
<text x="864.00" y="558" text-anchor="middle" font-size="13" font-family="Helvetica, Arial, sans-serif" fill="#5a5a5a">16</text>
<text x="864.00" y="82.00" text-anchor="middle" font-size="12" font-family="Helvetica, Arial, sans-serif" fill="#1c1c1c">1210674474.00</text>
</svg>