<svg xmlns="http://www.w3.org/2000/svg" width="980" height="620" viewBox="0 0 980 620">
<rect width="100%" height="100%" fill="#fcfbf7"/>
<text x="90" y="38" font-size="28" font-family="Helvetica, Arial, sans-serif" fill="#1c1c1c">Total Parallel Runtime by Thread Count</text>
<text x="90" y="64" font-size="15" font-family="Helvetica, Arial, sans-serif" fill="#5a5a5a">Summed over all parallel rows in tal_full_results.csv</text>
<line x1="90" y1="530.00" x2="950" y2="530.00" stroke="#ded8c9" stroke-width="1"/>
<text x="78" y="535.00" text-anchor="end" font-size="13" font-family="Helvetica, Arial, sans-serif" fill="#5a5a5a">0.00</text>
<line x1="90" y1="456.67" x2="950" y2="456.67" stroke="#ded8c9" stroke-width="1"/>
<text x="78" y="461.67" text-anchor="end" font-size="13" font-family="Helvetica, Arial, sans-serif" fill="#5a5a5a">128.94</text>
<line x1="90" y1="383.33" x2="950" y2="383.33" stroke="#ded8c9" stroke-width="1"/>
<text x="78" y="388.33" text-anchor="end" font-size="13" font-family="Helvetica, Arial, sans-serif" fill="#5a5a5a">257.89</text>
<line x1="90" y1="310.00" x2="950" y2="310.00" stroke="#ded8c9" stroke-width="1"/>
<text x="78" y="315.00" text-anchor="end" font-size="13" font-family="Helvetica, Arial, sans-serif" fill="#5a5a5a">386.83</text>
<line x1="90" y1="236.67" x2="950" y2="236.67" stroke="#ded8c9" stroke-width="1"/>
<text x="78" y="241.67" text-anchor="end" font-size="13" font-family="Helvetica, Arial, sans-serif" fill="#5a5a5a">515.78</text>
<line x1="90" y1="163.33" x2="950" y2="163.33" stroke="#ded8c9" stroke-width="1"/>
<text x="78" y="168.33" text-anchor="end" font-size="13" font-family="Helvetica, Arial, sans-serif" fill="#5a5a5a">644.72</text>
<line x1="90" y1="90.00" x2="950" y2="90.00" stroke="#ded8c9" stroke-width="1"/>
<text x="78" y="95.00" text-anchor="end" font-size="13" font-family="Helvetica, Arial, sans-serif" fill="#5a5a5a">773.66</text>
<line x1="90" y1="90" x2="90" y2="530" stroke="#746b58" stroke-width="1.5"/>
<line x1="90" y1="530" x2="950" y2="530" stroke="#746b58" stroke-width="1.5"/>
<text x="520.00" y="598" text-anchor="middle" font-size="16" font-family="Helvetica, Arial, sans-serif" fill="#1c1c1c">Thread Count / Category</text>
<text x="26" y="310.00" text-anchor="middle" transform="rotate(-90 26 310.00)" font-size="16" font-family="Helvetica, Arial, sans-serif" fill="#1c1c1c">Total Time (seconds)</text>
<rect x="128.70" y="90.00" width="94.60" height="440.00" fill="#2457a7" rx="4"/>
<text x="176.00" y="558" text-anchor="middle" font-size="13" font-family="Helvetica, Arial, sans-serif" fill="#5a5a5a">1</text>
<text x="176.00" y="82.00" text-anchor="middle" font-size="12" font-family="Helvetica, Arial, sans-serif" fill="#1c1c1c">773.66</text>
<rect x="300.70" y="236.18" width="94.60" height="293.82" fill="#2457a7" rx="4"/>
<text x="348.00" y="558" text-anchor="middle" font-size="13" font-family="Helvetica, Arial, sans-serif" fill="#5a5a5a">2</text>
<text x="348.00" y="228.18" text-anchor="middle" font-size="12" font-family="Helvetica, Arial, sans-serif" fill="#1c1c1c">516.63</text>
<rect x="472.70" y="302.09" width="94.60" height="227.91" fill="#2457a7" rx="4"/>
<text x="520.00" y="558" text-anchor="middle" font-size="13" font-family="Helvetica, Arial, sans-serif" fill="#5a5a5a">4</text>
<text x="520.00" y="294.09" text-anchor="middle" font-size="12" font-family="Helvetica, Arial, sans-serif" fill="#1c1c1c">400.74</text>
<rect x="644.70" y="341.49" width="94.60" height="188.51" fill="#2457a7" rx="4"/>
<text x="692.00" y="558" text-anchor="middle" font-size="13" font-family="Helvetica, Arial, sans-serif" fill="#5a5a5a">8</text>
<text x="692.00" y="333.49" text-anchor="middle" font-size="12" font-family="Helvetica, Arial, sans-serif" fill="#1c1c1c">331.46</text>
<rect x="816.70" y="341.61" width="94.60" height="188.39" fill="#2457a7" rx="4"/>
<text x="864.00" y="558" text-anchor="middle" font-size="13" font-family="Helvetica, Arial, sans-serif" fill="#5a5a5a">16</text>
<text x="864.00" y="333.61" text-anchor="middle" font-size="12" font-family="Helvetica, Arial, sans-serif" fill="#1c1c1c">331.25</text>
</svg>